# xmcd
#
# Track frame offsets: 
#        150
#        2017
#        20372
#        33623
#        47718
#        49968
#        64952
#        80459
#        93605
#        109944
#        116362
#        129046
#        147843
#        169817
#        187048
#        222397
#
# Disc length: 4142 seconds
#
# Revision: 0
# Processed by: cddbd v1.5.2PL0 Copyright (c) Steve Scherf et al.
# Submitted via: ExactAudioCopy v0.90b4
#
DISCID=e0102c10
DTITLE=Black Prairie - A Tear in the Eye Is a Wound in the Heart
DYEAR=2012
DGENRE=Bluegrass
TTITLE0=Ms. Sindell
TTITLE1=Rock of Ages
TTITLE2=For the Love of John Hartford
TTITLE3=Nowhere, Massachusetts
TTITLE4=More Jam for Ras
TTITLE5=How Do You Ruin Me
TTITLE6=Dirty River Stomp
TTITLE7=Evil Leaves
TTITLE8=What You Gave Me
TTITLE9=Jump Up Jon
TTITLE10=Winter Wind
TTITLE11=Little Songbird
TTITLE12=Taraf
TTITLE13=Richard Manuel
TTITLE14=34 Wishes: The Legend Of
TTITLE15=Lay Me Down in Tennessee
EXTD=
EXTT0=
EXTT1=
EXTT2=
EXTT3=
EXTT4=
EXTT5=
EXTT6=
EXTT7=
EXTT8=
EXTT9=
EXTT10=
EXTT11=
EXTT12=
EXTT13=
EXTT14=
EXTT15=
PLAYORDER=
